# xmcd
#
# Track frame offsets: 
#        150
#        13317
#        38797
#        60254
#        72352
#        85817
#        100445
#        117541
#        138739
#        155311
#        169366
#        188308
#        200062
#        222489
#        239016
#        245606
#        262578
#        286404
#        306602
#
# Disc length: 4375 seconds
#
# Revision: 0
# Processed by: cddbd v1.4PL0 Copyright (c) Steve Scherf et al.
# Submitted via: ExactAudioCopy v0.90a11
#
DISCID=21111513
DTITLE=Vranovcan - U Vranove bubnuju
DYEAR=1900
DGENRE=
TTITLE0=U Vranove bubnuju
TTITLE1=A za nasu stodolecku
TTITLE2=Sama ja pasulu sadzila
TTITLE3=Orem rolu
TTITLE4=Zahrajce mi muzikanti
TTITLE5=Popod les zeleni
TTITLE6=Cesko chudobnemu
TTITLE7=A na nasej ozinsine
TTITLE8=Vecaricok idze
TTITLE9=Tri hvizdy svica na nebe
TTITLE10=U Vranove v persim dome
TTITLE11=Zeleneju se chotari
TTITLE12=Ach Boze muj Boze
TTITLE13=Ej borovec borovec
TTITLE14=Ej pitvorsky richtaru
TTITLE15=Skamne mili skamen
TTITLE16=Z huri do Braniska
TTITLE17=Pocarnell huri
TTITLE18=Mila moja
EXTD=
EXTT0=
EXTT1=
EXTT2=
EXTT3=
EXTT4=
EXTT5=
EXTT6=
EXTT7=
EXTT8=
EXTT9=
EXTT10=
EXTT11=
EXTT12=
EXTT13=
EXTT14=
EXTT15=
EXTT16=
EXTT17=
EXTT18=
PLAYORDER=
